<?xml version="1.0" encoding="UTF-8" standalone="no"?>
<svg
   xmlns:dc="http://purl.org/dc/elements/1.1/"
   xmlns:cc="http://creativecommons.org/ns#"
   xmlns:rdf="http://www.w3.org/1999/02/22-rdf-syntax-ns#"
   xmlns:svg="http://www.w3.org/2000/svg"
   xmlns="http://www.w3.org/2000/svg"
   xmlns:sodipodi="http://sodipodi.sourceforge.net/DTD/sodipodi-0.dtd"
   xmlns:inkscape="http://www.inkscape.org/namespaces/inkscape"
   width="50"
   height="60"
   id="svg2989"
   version="1.1"
   inkscape:version="0.91 r13725"
   sodipodi:docname="kryvoEmptyLock.svg"
   inkscape:export-xdpi="459.70001"
   inkscape:export-ydpi="459.70001">
  <defs
     id="defs2991" />
  <sodipodi:namedview
     id="base"
     pagecolor="#ffffff"
     bordercolor="#666666"
     borderopacity="1.0"
     inkscape:pageopacity="0.0"
     inkscape:pageshadow="2"
     inkscape:zoom="6.9255901"
     inkscape:cx="11.671289"
     inkscape:cy="22.427322"
     inkscape:document-units="px"
     inkscape:current-layer="layer1"
     showgrid="false"
     inkscape:window-width="1440"
     inkscape:window-height="802"
     inkscape:window-x="0"
     inkscape:window-y="0"
     inkscape:window-maximized="1"
     fit-margin-top="0"
     fit-margin-left="0"
     fit-margin-right="0"
     fit-margin-bottom="0" />
  <metadata
     id="metadata2994">
    <rdf:RDF>
      <cc:Work
         rdf:about="">
        <dc:format>image/svg+xml</dc:format>
        <dc:type
           rdf:resource="http://purl.org/dc/dcmitype/StillImage" />
        <dc:title></dc:title>
      </cc:Work>
    </rdf:RDF>
  </metadata>
  <g
     inkscape:label="Layer 1"
     inkscape:groupmode="layer"
     id="layer1"
     transform="translate(-249.68513,-318.05092)">
    <path
       style="fill:#ffcc00;fill-opacity:1;stroke:#ffcc00;stroke-width:0.20848237"
       d="M 24.6875 0.095703125 C 13.1435 0.27482313 3.9183738 10.193413 4.0898438 22.251953 L 4.0996094 22.251953 L 4.0996094 25.103516 L 2.1035156 25.103516 C 0.99551566 25.103516 0.10351563 25.995516 0.10351562 27.103516 L 0.10351562 57.896484 C 0.10351562 59.004484 0.99551566 59.896484 2.1035156 59.896484 L 47.914062 59.896484 C 49.022064 59.896484 49.914062 59.004484 49.914062 57.896484 L 49.914062 27.103516 C 49.914062 25.995516 49.022064 25.103516 47.914062 25.103516 L 45.902344 25.103516 L 45.902344 22.251953 L 45.910156 22.251953 C 45.913156 22.035803 45.913156 21.805994 45.910156 21.589844 C 45.738696 9.5312937 36.23149 -0.083406875 24.6875 0.095703125 z M 25 5.171875 C 33.13724 5.171875 39.756023 12.799253 39.876953 22.251953 L 39.892578 22.251953 L 39.892578 25.103516 L 10.111328 25.103516 L 10.111328 22.251953 L 10.123047 22.251953 C 10.243977 12.799253 16.86276 5.171875 25 5.171875 z M 24.925781 32.980469 A 5.0621173 5.2028716 0 0 1 29.988281 38.183594 A 5.0621173 5.2028716 0 0 1 26.818359 43.005859 L 26.839844 43.005859 L 31.253906 51.037109 L 18.839844 51.037109 L 22.984375 43.148438 L 23.050781 43.023438 L 23.080078 43.023438 A 5.0621173 5.2028716 0 0 1 19.863281 38.183594 A 5.0621173 5.2028716 0 0 1 24.925781 32.980469 z "
       transform="translate(249.68513,318.05092)"
       id="rect3003"
       inkscape:export-xdpi="131.97421"
       inkscape:export-ydpi="131.97421" />
  </g>
</svg>
